<?xml version="1.0" encoding="UTF-8"?>
<svg width="176px" height="75px" viewBox="0 0 176 75" version="1.1" xmlns="http://www.w3.org/2000/svg" xmlns:xlink="http://www.w3.org/1999/xlink">
    <!-- Generator: Sketch 52.1 (67048) - http://www.bohemiancoding.com/sketch -->
    <title>Group</title>
    <desc>Created with Sketch.</desc>
    <g id="Page-1" stroke="none" stroke-width="1" fill="none" fill-rule="evenodd">
        <g id="melinda-main-logo" transform="translate(-10.000000, -6.000000)">
            <g id="Group" transform="translate(10.000000, 6.000000)">
                <path d="M26.404,52.055 C23.547,52.055 24.637,45.91 16.819,46.192 C11.5,46.549 7.497,49.5 7.59,56.265 C7.628,65.587 16.104,70.06 14.206,72.654 C13.548,73.612 13.153,73.951 11.706,73.951 C10.578,73.951 9.488,73.951 8.211,73.349 C6.744,72.766 0.448,63.689 0.844,56.133 C1.2,47.15 6.106,39.595 16.424,39.107 C22.231,38.9 27.23,42.132 27.23,42.132 C27.23,42.132 32.06,38.9 37.849,39.107 C48.185,39.595 52.996,47.15 53.429,56.133 C53.767,63.689 47.509,72.766 46.043,73.349 C44.821,73.951 43.862,73.951 42.584,73.951 C41.043,73.951 40.705,73.612 40.067,72.654 C38.112,70.06 46.644,65.588 46.701,56.265 C46.72,49.499 42.773,46.549 37.473,46.192 C29.655,45.91 30.763,52.055 27.794,52.055" id="Path" fill="#FFFFFF"></path>
                <path d="M81.301,71.244 C81.301,72.785 82.579,74.082 84.196,74.082 L84.459,74.082 C86.038,74.082 87.335,72.785 87.335,71.244 L87.335,35.705 C87.335,34.127 86.038,32.867 84.459,32.867 L84.196,32.867 C82.58,32.867 81.301,34.127 81.301,35.705 L81.301,71.244 Z" id="Path" fill="#FFFFFF"></path>
                <path d="M90.359,70.455 C90.359,72.071 91.637,73.293 93.197,73.293 L93.535,73.293 C95.114,73.293 96.373,72.071 96.373,70.455 L96.373,50.797 C96.373,49.237 95.114,47.959 93.535,47.959 L93.197,47.959 C91.637,47.959 90.359,49.237 90.359,50.797 L90.359,70.455 Z" id="Path" fill="#FFFFFF"></path>
                <path d="M89.382,41.474 C89.382,39.294 91.187,37.528 93.31,37.528 C95.491,37.528 97.219,39.295 97.219,41.474 C97.219,43.617 95.49,45.44 93.31,45.44 C91.187,45.44 89.382,43.617 89.382,41.474" id="Path" fill="#FFFFFF"></path>
                <path d="M99.906,70.906 C99.906,71.939 99.775,73.951 102.556,73.951 C105.205,73.951 105.394,72.353 105.394,71.339 L105.394,58.615 C105.394,57.355 106.051,54.462 109.923,54.462 C112.948,54.462 114.245,56.717 114.302,58.089 L114.302,70.699 C114.302,71.752 113.926,73.951 117.102,73.951 C119.846,73.951 119.489,71.752 119.527,70.699 L119.527,57.111 C119.489,54.574 118.098,52.545 116.614,51.116 C115.13,49.744 113.193,48.917 110.751,48.88 C108.759,48.842 106.804,49.425 105.771,50.214 C105.094,49.782 104.042,49.256 102.876,49.256 C100.414,49.256 99.906,50.44 99.906,51.399 L99.906,70.906 Z" id="Path" fill="#FFFFFF"></path>
                <path d="M163.448,29.277 C164.726,29.277 165.91,29.597 167.094,30.273 C168.334,30.969 169.237,31.852 169.912,33.055 C170.608,34.277 170.889,35.535 170.889,36.814 C170.889,38.148 170.608,39.332 169.912,40.553 C169.236,41.699 168.371,42.62 167.187,43.279 C166.003,44.011 164.762,44.257 163.447,44.257 C162.113,44.257 160.948,44.012 159.708,43.279 C158.542,42.621 157.641,41.7 156.964,40.553 C156.269,39.331 155.986,38.148 155.986,36.814 C155.986,35.536 156.268,34.277 156.964,33.055 C157.641,31.852 158.542,30.969 159.745,30.273 C160.986,29.597 162.171,29.277 163.448,29.277 Z M163.448,30.574 C162.415,30.574 161.381,30.819 160.366,31.383 C159.37,31.928 158.618,32.717 158.073,33.658 C157.491,34.71 157.227,35.744 157.227,36.815 C157.227,37.867 157.491,38.938 158.054,39.916 C158.542,40.837 159.369,41.664 160.328,42.246 C161.343,42.772 162.357,43.073 163.447,43.073 C164.537,43.073 165.552,42.772 166.549,42.246 C167.545,41.664 168.316,40.837 168.842,39.916 C169.367,38.938 169.688,37.867 169.688,36.815 C169.688,35.744 169.368,34.71 168.842,33.658 C168.278,32.717 167.545,31.929 166.529,31.383 C165.497,30.819 164.482,30.574 163.448,30.574 Z M160.159,40.949 L160.159,32.848 L162.922,32.848 C163.862,32.848 164.538,32.942 164.971,33.074 C165.366,33.243 165.76,33.562 166.005,33.863 C166.193,34.296 166.4,34.653 166.4,35.066 C166.4,35.668 166.136,36.194 165.76,36.607 C165.328,37.02 164.783,37.321 164.031,37.321 C164.35,37.471 164.538,37.622 164.783,37.754 C165.121,38.073 165.459,38.656 165.93,39.332 L166.906,40.949 L165.365,40.949 L164.613,39.671 C164.031,38.712 163.617,38.017 163.297,37.791 C162.996,37.622 162.677,37.547 162.17,37.547 L161.493,37.547 L161.493,40.949 L160.159,40.949 Z M161.494,36.4 L162.997,36.4 C163.806,36.4 164.313,36.306 164.576,36.062 C164.858,35.893 164.971,35.536 164.971,35.178 C164.971,34.952 164.971,34.708 164.783,34.521 C164.613,34.389 164.482,34.239 164.257,34.164 C163.993,34.032 163.617,33.957 162.922,33.957 L161.494,33.957 L161.494,36.4 Z" id="Shape" fill="#FFFFFF"></path>
                <path d="M155.479,61.284 C155.479,57.28 158.467,53.935 162.057,53.935 C165.759,53.935 168.71,57.28 168.71,61.284 C168.71,65.399 165.759,68.707 162.057,68.707 C158.468,68.707 155.479,65.399 155.479,61.284 M172.657,49.5 C169.632,49.5 169.5,51.417 169.5,51.417 C169.481,51.417 166.625,48.974 161.813,48.974 C153.582,48.974 149.86,54.499 149.86,61.829 C149.86,68.707 153.883,74.101 162.415,74.101 C166.963,74.101 170.195,71.62 170.195,71.62 C170.195,71.62 169.5,73.819 172.976,73.819 C175.476,73.819 175.476,71.827 175.476,71.827 L175.476,51.303 C175.477,51.303 175.326,49.5 172.657,49.5" id="Shape" fill="#FFFFFF"></path>
                <path d="M72.862,58.182 L62.338,58.182 C62.319,58.182 62.601,54.161 67.506,54.161 C71.754,54.161 72.862,58.182 72.862,58.182 M72.543,66.508 C73.783,65.85 75.249,66.338 75.944,67.485 C76.489,68.331 76.602,69.139 76.188,70.06 C74.478,73.18 71.077,74.138 67.223,74.138 C60.646,74.101 55.778,68.218 55.778,61.603 C55.778,54.913 60.665,48.936 67.355,48.955 C73.539,48.992 78.838,53.653 78.857,59.762 C78.857,60.72 79.158,61.415 78.613,62.167 C77.635,63.689 76.188,63.482 76.188,63.482 L61.604,63.482 C61.604,63.482 62.055,68.481 67.938,68.875 C69.949,69.046 71.077,67.298 72.543,66.508" id="Shape" fill="#FFFFFF"></path>
                <path d="M128.323,61.734 C128.323,57.674 131.236,54.462 134.675,54.462 C138.133,54.462 141.028,57.675 141.028,61.734 C141.028,65.756 138.133,69.046 134.675,69.046 C131.236,69.046 128.323,65.757 128.323,61.734 Z M147.831,36.213 C147.831,35.048 147.756,33.412 145.181,33.412 C142.493,33.412 142.381,35.028 142.306,36.194 L142.306,51.229 C141.404,50.42 137.626,48.841 134.394,49.03 C129.902,49.256 126.594,50.928 124.301,54.818 C122.741,57.525 122.892,59.611 122.892,62.712 C122.892,68.782 128.117,74.346 134.544,74.458 C137.663,74.533 141.141,73.405 142.005,71.978 C142.23,72.899 143.452,74.082 145.087,74.082 C148.15,74.082 147.831,71.526 147.831,70.343 L147.831,36.213 Z" id="Shape" fill="#FFFFFF"></path>
                <path d="M24.205,10.145 C24.205,10.145 18.529,17.043 17.289,26.609 C12.101,22.174 10.034,13.548 9.395,6.593 C17.439,6.086 24.205,10.145 24.205,10.145" id="Path" fill="#62BD64"></path>
                <path d="M24.788,37.697 C24.788,37.697 20.728,32.153 22.231,25.18 C24.562,14.505 34.804,4.15 44.051,0.297 C45.987,10.596 45.216,18.489 42.397,26.119 C38.451,36.889 30.332,37.978 30.332,37.978 C30.332,37.978 28.96,36.098 30.633,33.335 C32.155,30.836 35.707,27.941 32.794,26.663 C26.404,23.715 24.788,37.697 24.788,37.697" id="Path" fill="#62BD64"></path>
            </g>
        </g>
    </g>
</svg>